{"accessors" : [{"bufferView" : 0, "byteOffset" : 0, "componentType" : 5123, "count" : 51, "type" : "SCALAR", "max" : [39], "min" : [0]}, {"bufferView" : 1, "byteOffset" : 0, "componentType" : 5126, "count" : 40, "type" : "VEC3", "max" : [250, 150, 0], "min" : [-250, -150, -6], "name" : "POSITION"}, {"bufferView" : 0, "byteOffset" : 104, "componentType" : 5123, "count" : 13134, "type" : "SCALAR", "max" : [10917], "min" : [0]}, {"bufferView" : 2, "byteOffset" : 0, "componentType" : 5126, "count" : 10918, "type" : "VEC3", "max" : [249.9980010986328, 149, 397], "min" : [-250.0019989013672, -151, 5], "name" : "POSITION"}, {"bufferView" : 0, "byteOffset" : 26372, "componentType" : 5123, "count" : 12, "type" : "SCALAR", "max" : [10], "min" : [0]}, {"bufferView" : 3, "byteOffset" : 0, "componentType" : 5126, "count" : 11, "type" : "VEC3", "max" : [-180.0019989013672, 21, 435], "min" : [-192.0019989013672, 21, 411], "name" : "POSITION"}, {"bufferView" : 0, "byteOffset" : 26396, "componentType" : 5123, "count" : 30576, "type" : "SCALAR", "max" : [24703], "min" : [0]}, {"bufferView" : 4, "byteOffset" : 0, "componentType" : 5126, "count" : 24704, "type" : "VEC3", "max" : [250, 149, 405], "min" : [-250.0019989013672, -161, 0], "name" : "POSITION"}, {"bufferView" : 0, "byteOffset" : 87548, "componentType" : 5123, "count" : 123, "type" : "SCALAR", "max" : [105], "min" : [0]}, {"bufferView" : 5, "byteOffset" : 0, "componentType" : 5126, "count" : 106, "type" : "VEC3", "max" : [249.9980010986328, 149, 439], "min" : [-250.0019989013672, -151, 403], "name" : "POSITION"}, {"bufferView" : 0, "byteOffset" : 87796, "componentType" : 5123, "count" : 72, "type" : "SCALAR", "max" : [57], "min" : [0]}, {"bufferView" : 6, "byteOffset" : 0, "componentType" : 5126, "count" : 58, "type" : "VEC3", "max" : [249.9980010986328, 149, 425], "min" : [-250.0019989013672, -151, 410], "name" : "POSITION"}, {"bufferView" : 0, "byteOffset" : 87940, "componentType" : 5123, "count" : 6624, "type" : "SCALAR", "max" : [5436], "min" : [0]}, {"bufferView" : 7, "byteOffset" : 0, "componentType" : 5126, "count" : 5437, "type" : "VEC3", "max" : [-181.0019989013672, 21, 426], "min" : [-183.0019989013672, 19, 424], "name" : "POSITION"}], "asset" : {"generator" : "Aspose.3D 22.3", "version" : "2.0"}, "buffers" : [{"uri" : "data:application/octet-stream;base64,", "byteLength" : 708324}], "bufferViews" : [{"buffer" : 0, "byteOffset" : 0, "byteLength" : 101188, "target" : 34963}, {"buffer" : 0, "byteOffset" : 101192, "byteLength" : 612, "byteStride" : 12, "target" : 34962}, {"buffer" : 0, "byteOffset" : 101808, "byteLength" : 157608, "byteStride" : 12, "target" : 34962}, {"buffer" : 0, "byteOffset" : 259420, "byteLength" : 144, "byteStride" : 12, "target" : 34962}, {"buffer" : 0, "byteOffset" : 259568, "byteLength" : 366912, "byteStride" : 12, "target" : 34962}, {"buffer" : 0, "byteOffset" : 626484, "byteLength" : 1476, "byteStride" : 12, "target" : 34962}, {"buffer" : 0, "byteOffset" : 627964, "byteLength" : 864, "byteStride" : 12, "target" : 34962}, {"buffer" : 0, "byteOffset" : 628832, "byteLength" : 79488, "byteStride" : 12, "target" : 34962}], "materials" : [{"name" : "color_40919", "pbrMetallicRoughness" : {"baseColorFactor" : [0, 0.6235294117647059, 0.8431372549019608, 1], "metallicFactor" : 0, "roughnessFactor" : 0}, "emissiveFactor" : [0, 0, 0], "alphaMode" : "OPAQUE", "doubleSided" : false}, {"name" : "color_6306067", "pbrMetallicRoughness" : {"baseColorFactor" : [0.3764705882352941, 0.2235294117647059, 0.07450980392156863, 1], "metallicFactor" : 0, "roughnessFactor" : 0}, "emissiveFactor" : [0, 0, 0], "alphaMode" : "OPAQUE", "doubleSided" : false}, {"name" : "color_12568524", "pbrMetallicRoughness" : {"baseColorFactor" : [0.7490196078431373, 0.7803921568627451, 0.8, 1], "metallicFactor" : 0, "roughnessFactor" : 0}, "emissiveFactor" : [0, 0, 0], "alphaMode" : "OPAQUE", "doubleSided" : false}, {"name" : "color_14541540", "pbrMetallicRoughness" : {"baseColorFactor" : [0.8666666666666667, 0.8862745098039215, 0.8941176470588236, 1], "metallicFactor" : 0, "roughnessFactor" : 0}, "emissiveFactor" : [0, 0, 0], "alphaMode" : "OPAQUE", "doubleSided" : false}, {"name" : "color_16448250", "pbrMetallicRoughness" : {"baseColorFactor" : [0.9803921568627451, 0.9803921568627451, 0.9803921568627451, 1], "metallicFactor" : 0, "roughnessFactor" : 0}, "emissiveFactor" : [0, 0, 0], "alphaMode" : "OPAQUE", "doubleSided" : false}, {"name" : "color_16768282", "pbrMetallicRoughness" : {"baseColorFactor" : [1, 0.8666666666666667, 0.10196078431372549, 1], "metallicFactor" : 0, "roughnessFactor" : 0}, "emissiveFactor" : [0, 0, 0], "alphaMode" : "OPAQUE", "doubleSided" : false}], "meshes" : [{"primitives" : [{"attributes" : {"POSITION" : 1}, "indices" : 0, "mode" : 4}], "name" : ""}, {"primitives" : [{"attributes" : {"POSITION" : 3}, "indices" : 2, "material" : 0, "mode" : 4}], "name" : ""}, {"primitives" : [{"attributes" : {"POSITION" : 5}, "indices" : 4, "material" : 1, "mode" : 4}], "name" : ""}, {"primitives" : [{"attributes" : {"POSITION" : 7}, "indices" : 6, "material" : 2, "mode" : 4}], "name" : ""}, {"primitives" : [{"attributes" : {"POSITION" : 9}, "indices" : 8, "material" : 3, "mode" : 4}], "name" : ""}, {"primitives" : [{"attributes" : {"POSITION" : 11}, "indices" : 10, "material" : 4, "mode" : 4}], "name" : ""}, {"primitives" : [{"attributes" : {"POSITION" : 13}, "indices" : 12, "material" : 5, "mode" : 4}], "name" : ""}], "nodes" : [{"mesh" : 0, "name" : "group_0_0"}, {"mesh" : 1, "name" : "group_0_40919"}, {"mesh" : 2, "name" : "group_0_6306067"}, {"mesh" : 3, "name" : "group_0_12568524"}, {"mesh" : 4, "name" : "group_0_14541540"}, {"mesh" : 5, "name" : "group_0_16448250"}, {"mesh" : 6, "name" : "group_0_16768282"}], "scene" : 0, "scenes" : [{"nodes" : [0, 1, 2, 3, 4, 5, 6]}]}